<mxfile host="app.diagrams.net" agent="Mozilla/5.0 (X11; Linux x86_64) AppleWebKit/537.36 (KHTML, like Gecko) Chrome/138.0.0.0 Safari/537.36" version="28.1.1">
  <diagram name="Scaling" id="scaling-v4-diagram">
    <mxGraphModel dx="2852" dy="1582" grid="1" gridSize="10" guides="1" tooltips="1" connect="1" arrows="1" fold="1" page="1" pageScale="1" pageWidth="2200" pageHeight="1400" math="0" shadow="0">
      <root>
        <mxCell id="0" />
        <mxCell id="1" parent="0" />
        <mxCell id="user-1" value="Client" style="shape=actor;whiteSpace=wrap;html=1;fillColor=#f8cecc;strokeColor=#b85450;" parent="1" vertex="1">
          <mxGeometry x="80" y="250" width="60" height="80" as="geometry" />
        </mxCell>
        <mxCell id="api-gateway" value="API Gateway&#xa;(Load Balancer)" style="rounded=1;whiteSpace=wrap;html=1;fillColor=#d5e8d4;strokeColor=#82b366;fontStyle=1;fontSize=12;" parent="1" vertex="1">
          <mxGeometry x="250" y="250" width="120" height="80" as="geometry" />
        </mxCell>
        <mxCell id="consul" value="Consul&#xa;Service Discovery" style="shape=cylinder3;whiteSpace=wrap;html=1;boundedLbl=1;backgroundOutline=1;size=15;fillColor=#ffe6cc;strokeColor=#d79b00;fontStyle=1;" parent="1" vertex="1">
          <mxGeometry x="270" y="120" width="80" height="70" as="geometry" />
        </mxCell>
        <mxCell id="api-instances-group" value="Scaled API Instances" style="rounded=0;whiteSpace=wrap;html=1;fillColor=none;strokeColor=#6c8ebf;strokeWidth=2;dashed=1;verticalAlign=top;fontStyle=1;" parent="1" vertex="1">
          <mxGeometry x="405" y="150" width="540" height="430" as="geometry" />
        </mxCell>
        <mxCell id="api-1" value="pymongo-api-1" style="rounded=1;whiteSpace=wrap;html=1;fillColor=#dae8fc;strokeColor=#6c8ebf;" parent="1" vertex="1">
          <mxGeometry x="490" y="180" width="90" height="50" as="geometry" />
        </mxCell>
        <mxCell id="api-2" value="pymongo-api-2" style="rounded=1;whiteSpace=wrap;html=1;fillColor=#dae8fc;strokeColor=#6c8ebf;" parent="1" vertex="1">
          <mxGeometry x="630" y="180" width="90" height="50" as="geometry" />
        </mxCell>
        <mxCell id="api-3" value="pymongo-api-3" style="rounded=1;whiteSpace=wrap;html=1;fillColor=#dae8fc;strokeColor=#6c8ebf;" parent="1" vertex="1">
          <mxGeometry x="810" y="180" width="90" height="50" as="geometry" />
        </mxCell>
        <mxCell id="redis-1" value="Redis Cache&#xa;(Shared)" style="shape=cylinder3;whiteSpace=wrap;html=1;boundedLbl=1;backgroundOutline=1;size=15;fillColor=#ffcc99;strokeColor=#d79b00;" parent="1" vertex="1">
          <mxGeometry x="420" y="470" width="100" height="80" as="geometry" />
        </mxCell>
        <mxCell id="config-1" value="configSrv" style="shape=cylinder3;whiteSpace=wrap;html=1;boundedLbl=1;backgroundOutline=1;size=15;fillColor=#e1d5e7;strokeColor=#9673a6;" parent="1" vertex="1">
          <mxGeometry x="1000" y="150" width="80" height="60" as="geometry" />
        </mxCell>
        <mxCell id="mongos-1" value="mongos" style="rounded=1;whiteSpace=wrap;html=1;fillColor=#fff2cc;strokeColor=#d6b656;" parent="1" vertex="1">
          <mxGeometry x="1000" y="270" width="80" height="60" as="geometry" />
        </mxCell>
        <mxCell id="shard1-group" value="Shard 1 Replica Set" style="rounded=0;whiteSpace=wrap;html=1;fillColor=none;strokeColor=#82b366;strokeWidth=2;dashed=1;verticalAlign=top;" parent="1" vertex="1">
          <mxGeometry x="1200" y="80" width="330" height="120" as="geometry" />
        </mxCell>
        <mxCell id="shard1-primary" value="shard1_primary" style="shape=cylinder3;whiteSpace=wrap;html=1;boundedLbl=1;backgroundOutline=1;size=15;fillColor=#c8e6c9;strokeColor=#4caf50;fontStyle=1;" parent="1" vertex="1">
          <mxGeometry x="1230" y="110" width="80" height="50" as="geometry" />
        </mxCell>
        <mxCell id="shard1-sec1" value="shard1_sec1" style="shape=cylinder3;whiteSpace=wrap;html=1;boundedLbl=1;backgroundOutline=1;size=15;fillColor=#e8f5e8;strokeColor=#4caf50;" parent="1" vertex="1">
          <mxGeometry x="1330" y="110" width="80" height="50" as="geometry" />
        </mxCell>
        <mxCell id="shard1-sec2" value="shard1_sec2" style="shape=cylinder3;whiteSpace=wrap;html=1;boundedLbl=1;backgroundOutline=1;size=15;fillColor=#e8f5e8;strokeColor=#4caf50;" parent="1" vertex="1">
          <mxGeometry x="1430" y="110" width="80" height="50" as="geometry" />
        </mxCell>
        <mxCell id="shard2-group" value="Shard 2 Replica Set" style="rounded=0;whiteSpace=wrap;html=1;fillColor=none;strokeColor=#82b366;strokeWidth=2;dashed=1;verticalAlign=top;" parent="1" vertex="1">
          <mxGeometry x="1200" y="300" width="330" height="110" as="geometry" />
        </mxCell>
        <mxCell id="shard2-primary" value="shard2_primary" style="shape=cylinder3;whiteSpace=wrap;html=1;boundedLbl=1;backgroundOutline=1;size=15;fillColor=#c8e6c9;strokeColor=#4caf50;fontStyle=1;" parent="1" vertex="1">
          <mxGeometry x="1230" y="330" width="80" height="50" as="geometry" />
        </mxCell>
        <mxCell id="shard2-sec1" value="shard2_sec1" style="shape=cylinder3;whiteSpace=wrap;html=1;boundedLbl=1;backgroundOutline=1;size=15;fillColor=#e8f5e8;strokeColor=#4caf50;" parent="1" vertex="1">
          <mxGeometry x="1330" y="330" width="80" height="50" as="geometry" />
        </mxCell>
        <mxCell id="shard2-sec2" value="shard2_sec2" style="shape=cylinder3;whiteSpace=wrap;html=1;boundedLbl=1;backgroundOutline=1;size=15;fillColor=#e8f5e8;strokeColor=#4caf50;" parent="1" vertex="1">
          <mxGeometry x="1430" y="330" width="80" height="50" as="geometry" />
        </mxCell>
        <mxCell id="user-to-gateway" style="edgeStyle=orthogonalEdgeStyle;rounded=0;orthogonalLoop=1;jettySize=auto;html=1;strokeWidth=3;strokeColor=#82b366;endArrow=classic;" parent="1" source="user-1" target="api-gateway" edge="1">
          <mxGeometry relative="1" as="geometry" />
        </mxCell>
        <mxCell id="gateway-to-consul" style="edgeStyle=orthogonalEdgeStyle;rounded=0;orthogonalLoop=1;jettySize=auto;html=1;strokeWidth=2;strokeColor=#d79b00;dashed=1;endArrow=classic;" parent="1" source="api-gateway" target="consul" edge="1">
          <mxGeometry relative="1" as="geometry" />
        </mxCell>
        <mxCell id="gateway-to-api1" style="edgeStyle=orthogonalEdgeStyle;rounded=0;orthogonalLoop=1;jettySize=auto;html=1;strokeWidth=3;strokeColor=#6c8ebf;endArrow=classic;" parent="1" source="api-gateway" target="api-1" edge="1">
          <mxGeometry relative="1" as="geometry" />
        </mxCell>
        <mxCell id="gateway-to-api2" style="edgeStyle=orthogonalEdgeStyle;rounded=0;orthogonalLoop=1;jettySize=auto;html=1;strokeWidth=3;strokeColor=#6c8ebf;endArrow=classic;" parent="1" source="api-gateway" target="api-2" edge="1">
          <mxGeometry relative="1" as="geometry" />
        </mxCell>
        <mxCell id="gateway-to-api3" style="edgeStyle=orthogonalEdgeStyle;rounded=0;orthogonalLoop=1;jettySize=auto;html=1;strokeWidth=3;strokeColor=#6c8ebf;endArrow=classic;" parent="1" source="api-gateway" target="api-3" edge="1">
          <mxGeometry relative="1" as="geometry" />
        </mxCell>
        <mxCell id="api1-to-consul" style="edgeStyle=orthogonalEdgeStyle;rounded=0;orthogonalLoop=1;jettySize=auto;html=1;strokeWidth=2;strokeColor=#d79b00;dashed=1;endArrow=classic;" parent="1" source="api-1" target="consul" edge="1">
          <mxGeometry relative="1" as="geometry">
            <Array as="points">
              <mxPoint x="550" y="120" />
            </Array>
          </mxGeometry>
        </mxCell>
        <mxCell id="api2-to-consul" style="edgeStyle=orthogonalEdgeStyle;rounded=0;orthogonalLoop=1;jettySize=auto;html=1;strokeWidth=2;strokeColor=#d79b00;dashed=1;endArrow=classic;" parent="1" source="api-2" target="consul" edge="1">
          <mxGeometry relative="1" as="geometry">
            <Array as="points">
              <mxPoint x="680" y="130" />
            </Array>
          </mxGeometry>
        </mxCell>
        <mxCell id="api3-to-consul" style="edgeStyle=orthogonalEdgeStyle;rounded=0;orthogonalLoop=1;jettySize=auto;html=1;strokeWidth=2;strokeColor=#d79b00;dashed=1;endArrow=classic;" parent="1" source="api-3" target="consul" edge="1">
          <mxGeometry relative="1" as="geometry">
            <Array as="points">
              <mxPoint x="870" y="100" />
              <mxPoint x="310" y="100" />
            </Array>
          </mxGeometry>
        </mxCell>
        <mxCell id="api1-to-redis" style="edgeStyle=orthogonalEdgeStyle;rounded=0;orthogonalLoop=1;jettySize=auto;html=1;strokeWidth=2;strokeColor=#ff6600;endArrow=classic;" parent="1" source="api-1" target="redis-1" edge="1">
          <mxGeometry relative="1" as="geometry">
            <Array as="points">
              <mxPoint x="450" y="205" />
            </Array>
          </mxGeometry>
        </mxCell>
        <mxCell id="api2-to-redis" style="edgeStyle=orthogonalEdgeStyle;rounded=0;orthogonalLoop=1;jettySize=auto;html=1;strokeWidth=2;strokeColor=#ff6600;endArrow=classic;" parent="1" source="api-2" target="redis-1" edge="1">
          <mxGeometry relative="1" as="geometry">
            <Array as="points">
              <mxPoint x="620" y="205" />
              <mxPoint x="620" y="360" />
              <mxPoint x="470" y="360" />
            </Array>
          </mxGeometry>
        </mxCell>
        <mxCell id="api3-to-redis" style="edgeStyle=orthogonalEdgeStyle;rounded=0;orthogonalLoop=1;jettySize=auto;html=1;strokeWidth=2;strokeColor=#ff6600;endArrow=classic;" parent="1" source="api-3" target="redis-1" edge="1">
          <mxGeometry relative="1" as="geometry">
            <Array as="points">
              <mxPoint x="760" y="205" />
              <mxPoint x="760" y="380" />
              <mxPoint x="490" y="380" />
            </Array>
          </mxGeometry>
        </mxCell>
        <mxCell id="api1-to-mongos" style="edgeStyle=orthogonalEdgeStyle;rounded=0;orthogonalLoop=1;jettySize=auto;html=1;strokeWidth=2;strokeColor=#d6b656;endArrow=classic;" parent="1" source="api-1" target="mongos-1" edge="1">
          <mxGeometry relative="1" as="geometry">
            <Array as="points">
              <mxPoint x="600" y="330" />
            </Array>
          </mxGeometry>
        </mxCell>
        <mxCell id="api2-to-mongos" style="edgeStyle=orthogonalEdgeStyle;rounded=0;orthogonalLoop=1;jettySize=auto;html=1;strokeWidth=2;strokeColor=#d6b656;endArrow=classic;" parent="1" source="api-2" target="mongos-1" edge="1">
          <mxGeometry relative="1" as="geometry">
            <Array as="points">
              <mxPoint x="740" y="205" />
              <mxPoint x="740" y="400" />
              <mxPoint x="1040" y="400" />
            </Array>
          </mxGeometry>
        </mxCell>
        <mxCell id="api3-to-mongos" style="edgeStyle=orthogonalEdgeStyle;rounded=0;orthogonalLoop=1;jettySize=auto;html=1;strokeWidth=2;strokeColor=#d6b656;endArrow=classic;" parent="1" source="api-3" target="mongos-1" edge="1">
          <mxGeometry relative="1" as="geometry">
            <Array as="points">
              <mxPoint x="920" y="205" />
              <mxPoint x="920" y="370" />
              <mxPoint x="1040" y="370" />
            </Array>
          </mxGeometry>
        </mxCell>
        <mxCell id="mongos-to-config" style="edgeStyle=orthogonalEdgeStyle;rounded=0;orthogonalLoop=1;jettySize=auto;html=1;strokeWidth=2;strokeColor=#9673a6;endArrow=classic;" parent="1" source="mongos-1" target="config-1" edge="1">
          <mxGeometry relative="1" as="geometry" />
        </mxCell>
        <mxCell id="mongos-to-shard1" style="edgeStyle=orthogonalEdgeStyle;rounded=0;orthogonalLoop=1;jettySize=auto;html=1;strokeWidth=2;strokeColor=#4caf50;endArrow=classic;" parent="1" source="mongos-1" target="shard1-primary" edge="1">
          <mxGeometry relative="1" as="geometry" />
        </mxCell>
        <mxCell id="mongos-to-shard2" style="edgeStyle=orthogonalEdgeStyle;rounded=0;orthogonalLoop=1;jettySize=auto;html=1;strokeWidth=2;strokeColor=#4caf50;endArrow=classic;" parent="1" source="mongos-1" target="shard2-primary" edge="1">
          <mxGeometry relative="1" as="geometry" />
        </mxCell>
        <mxCell id="shard1-repl1" style="edgeStyle=orthogonalEdgeStyle;rounded=0;orthogonalLoop=1;jettySize=auto;html=1;strokeWidth=1;strokeColor=#4caf50;dashed=1;endArrow=classic;" parent="1" source="shard1-primary" target="shard1-sec1" edge="1">
          <mxGeometry relative="1" as="geometry" />
        </mxCell>
        <mxCell id="shard1-repl2" style="edgeStyle=orthogonalEdgeStyle;rounded=0;orthogonalLoop=1;jettySize=auto;html=1;strokeWidth=1;strokeColor=#4caf50;dashed=1;endArrow=classic;" parent="1" source="shard1-primary" target="shard1-sec2" edge="1">
          <mxGeometry relative="1" as="geometry" />
        </mxCell>
        <mxCell id="shard2-repl1" style="edgeStyle=orthogonalEdgeStyle;rounded=0;orthogonalLoop=1;jettySize=auto;html=1;strokeWidth=1;strokeColor=#4caf50;dashed=1;endArrow=classic;" parent="1" source="shard2-primary" target="shard2-sec1" edge="1">
          <mxGeometry relative="1" as="geometry" />
        </mxCell>
        <mxCell id="shard2-repl2" style="edgeStyle=orthogonalEdgeStyle;rounded=0;orthogonalLoop=1;jettySize=auto;html=1;strokeWidth=1;strokeColor=#4caf50;dashed=1;endArrow=classic;" parent="1" source="shard2-primary" target="shard2-sec2" edge="1">
          <mxGeometry relative="1" as="geometry" />
        </mxCell>
        <mxCell id="title" value="v4: Horizontal Scaling with API Gateway &amp; Service Discovery" style="text;html=1;strokeColor=none;fillColor=none;align=center;verticalAlign=middle;whiteSpace=wrap;rounded=0;fontSize=18;fontStyle=1;" parent="1" vertex="1">
          <mxGeometry x="700" y="40" width="500" height="40" as="geometry" />
        </mxCell>
      </root>
    </mxGraphModel>
  </diagram>
</mxfile>
